<?xml version="1.0" encoding="UTF-8"?>
<svg width="97px" height="30px" viewBox="0 0 97 30" version="1.1" xmlns="http://www.w3.org/2000/svg" xmlns:xlink="http://www.w3.org/1999/xlink">
    <!-- Generator: Sketch 43.1 (39012) - http://www.bohemiancoding.com/sketch -->
    <title>Group 302</title>
    <desc>Created with Sketch.</desc>
    <defs>
        <polygon id="path-1" points="0 976 522 976 522 0 0 0"></polygon>
    </defs>
    <g id="Page-1" stroke="none" stroke-width="1" fill="none" fill-rule="evenodd">
        <g id="Page-2" transform="translate(-369.000000, -276.000000)">
            <g id="Group-302" transform="translate(151.000000, 0.000000)">
                <path d="M248.2534,284.0313 C247.3584,284.0313 246.3784,284.2393 245.9324,284.4483 L245.9324,295.1263 C246.3484,295.3023 247.3904,295.4823 248.2534,295.4823 C251.1974,295.4823 252.6244,293.0443 252.6244,289.6833 C252.6244,286.2033 251.1664,284.0313 248.2534,284.0313 Z M248.5504,298.0103 C247.5674,298.0103 246.4684,297.8023 245.9324,297.6243 L245.9324,304.9593 L242.5564,304.9593 L242.5564,283.0273 C243.8684,282.1403 245.9914,281.4743 248.1934,281.4743 C253.1904,281.4743 255.9854,284.5973 255.9854,289.6833 C255.9854,294.5893 253.3964,298.0103 248.5504,298.0103 Z" id="Fill-289" fill="#2D327F"></path>
                <path d="M266.6421,284.2847 C266.6421,284.2847 266.0131,284.0717 265.2921,284.1587 C263.4521,284.3807 262.6691,285.4137 262.6691,285.4137 L262.6691,298.0727 L259.3531,298.0727 L259.3531,284.1647 C262.1501,280.7387 267.0911,281.6077 267.5711,281.6997 L266.6421,284.2847 Z" id="Fill-291" fill="#2D327F"></path>
                <path d="M278.7612,289.8125 C275.5732,289.9865 272.3882,290.2465 272.3882,293.0275 C272.3882,294.6785 273.6622,295.6925 276.0682,295.6925 C277.0812,295.6925 278.2672,295.5185 278.7612,295.2855 L278.7612,289.8125 Z M276.1562,297.9795 C271.6632,297.9795 269.4042,296.1565 269.4042,293.0845 C269.4042,288.7395 274.0392,287.9585 278.7612,287.6965 L278.7612,286.7105 C278.7612,285.7065 277.9022,284.0105 275.8542,283.8135 C274.7762,283.7095 273.1642,283.8735 271.7872,284.3255 L271.7872,281.9095 C271.7872,281.9095 273.7092,281.4235 275.7952,281.4235 C279.5322,281.4235 281.9012,284.7085 281.9012,287.1245 L281.9012,296.8805 C280.7702,297.4905 278.3562,297.9795 276.1562,297.9795 L276.1562,297.9795 Z" id="Fill-293" fill="#2D327F"></path>
                <mask id="mask-2" fill="white">
                    <use xlink:href="#path-1"></use>
                </mask>
                <g id="Clip-296"></g>
                <polygon id="Fill-295" fill="#CC1E56" mask="url(#mask-2)" points="290.305 281.863 294.81 281.863 294.81 277.342 290.305 277.342"></polygon>
                <path d="M290.3047,291.0156 C290.3047,297.9496 287.5317,301.1776 279.4797,301.1776 L279.4797,305.6916 C290.3047,305.6916 294.8097,301.6266 294.8097,291.0156 L294.8097,284.7806 L290.3047,284.7806 L290.3047,291.0156 Z" id="Fill-297" fill="#CC1E56" mask="url(#mask-2)"></path>
                <path d="M310.2241,294.3623 C305.8061,294.6053 301.3851,294.9653 301.3851,298.8223 C301.3851,301.1133 303.1531,302.5183 306.4881,302.5183 C307.8931,302.5183 309.5391,302.2763 310.2241,301.9543 L310.2241,294.3623 Z M306.6091,305.6913 C300.3821,305.6913 297.2501,303.1603 297.2501,298.9023 C297.2501,292.8783 303.6751,291.7913 310.2241,291.4333 L310.2241,290.0653 C310.2241,288.6723 309.0321,286.3173 306.1921,286.0473 C304.6961,285.9043 301.4811,286.1313 299.5741,286.7583 L299.5741,283.4063 C299.5741,283.4063 303.2181,282.7333 306.1111,282.7333 C311.2901,282.7333 314.4011,287.2853 314.4011,290.6373 L314.4011,304.1643 C312.8341,305.0103 309.6601,305.6913 306.6091,305.6913 L306.6091,305.6913 Z" id="Fill-298" fill="#CC1E56" mask="url(#mask-2)"></path>
                <polygon id="Fill-299" fill="#CC1E56" mask="url(#mask-2)" points="308.9541 281.5122 304.8441 281.5122 307.6841 277.3422 311.9821 277.3422"></polygon>
                <path d="M228.9868,285.4277 C232.8578,285.4277 233.6168,289.6227 233.6168,290.6297 L223.6488,290.6297 C223.6488,287.9277 225.6528,285.4277 228.9868,285.4277 M223.5478,293.6797 L237.8578,293.6797 C237.8578,286.8227 235.4288,282.3397 228.7398,282.3397 C215.8818,282.3397 213.3038,305.6547 232.7758,305.6807 L232.7758,305.6917 L236.6048,305.6917 L236.6048,301.2677 L232.8088,301.2677 C224.2308,301.2677 223.5478,293.6797 223.5478,293.6797" id="Fill-300" fill="#CC1E56" mask="url(#mask-2)"></path>
                <polygon id="Fill-301" fill="#CC1E56" mask="url(#mask-2)" points="231.6616 281.1191 227.5536 281.1191 230.3926 276.9481 234.6896 276.9481"></polygon>
            </g>
        </g>
    </g>
</svg>
